<mxfile host="Electron" modified="2023-07-10T13:03:28.323Z" agent="Mozilla/5.0 (Windows NT 10.0; Win64; x64) AppleWebKit/537.36 (KHTML, like Gecko) draw.io/21.6.1 Chrome/112.0.5615.204 Electron/24.6.1 Safari/537.36" etag="ksj7dckPC0pN14wLvxwF" version="21.6.1" type="device">
  <diagram name="Page-1" id="6nQvO7_VdfA6vWmWFad1">
    <mxGraphModel dx="2759" dy="1144" grid="1" gridSize="10" guides="1" tooltips="1" connect="1" arrows="1" fold="1" page="1" pageScale="1" pageWidth="850" pageHeight="1100" math="0" shadow="0">
      <root>
        <mxCell id="0" />
        <mxCell id="1" parent="0" />
        <mxCell id="Fem_o0pjPRZjkHKnfd6V-5" style="edgeStyle=orthogonalEdgeStyle;rounded=0;orthogonalLoop=1;jettySize=auto;html=1;exitX=1;exitY=0.5;exitDx=0;exitDy=0;exitPerimeter=0;entryX=0;entryY=0.669;entryDx=0;entryDy=0;entryPerimeter=0;" edge="1" parent="1" source="Fem_o0pjPRZjkHKnfd6V-3" target="Fem_o0pjPRZjkHKnfd6V-4">
          <mxGeometry relative="1" as="geometry" />
        </mxCell>
        <mxCell id="Fem_o0pjPRZjkHKnfd6V-3" value="start" style="strokeWidth=2;html=1;shape=mxgraph.flowchart.start_1;whiteSpace=wrap;" vertex="1" parent="1">
          <mxGeometry x="-680" y="330" width="100" height="60" as="geometry" />
        </mxCell>
        <mxCell id="Fem_o0pjPRZjkHKnfd6V-9" style="edgeStyle=orthogonalEdgeStyle;rounded=0;orthogonalLoop=1;jettySize=auto;html=1;exitX=1;exitY=0.5;exitDx=0;exitDy=0;" edge="1" parent="1" source="Fem_o0pjPRZjkHKnfd6V-4" target="Fem_o0pjPRZjkHKnfd6V-6">
          <mxGeometry relative="1" as="geometry" />
        </mxCell>
        <mxCell id="Fem_o0pjPRZjkHKnfd6V-4" value="Command line arguments" style="html=1;strokeWidth=2;shape=manualInput;whiteSpace=wrap;rounded=1;size=26;arcSize=11;" vertex="1" parent="1">
          <mxGeometry x="-510" y="310" width="100" height="80" as="geometry" />
        </mxCell>
        <mxCell id="Fem_o0pjPRZjkHKnfd6V-8" style="edgeStyle=orthogonalEdgeStyle;rounded=0;orthogonalLoop=1;jettySize=auto;html=1;exitX=0.5;exitY=1;exitDx=0;exitDy=0;exitPerimeter=0;" edge="1" parent="1" source="Fem_o0pjPRZjkHKnfd6V-6" target="Fem_o0pjPRZjkHKnfd6V-7">
          <mxGeometry relative="1" as="geometry" />
        </mxCell>
        <mxCell id="Fem_o0pjPRZjkHKnfd6V-11" style="edgeStyle=orthogonalEdgeStyle;rounded=0;orthogonalLoop=1;jettySize=auto;html=1;exitX=1;exitY=0.5;exitDx=0;exitDy=0;exitPerimeter=0;" edge="1" parent="1" source="Fem_o0pjPRZjkHKnfd6V-6" target="Fem_o0pjPRZjkHKnfd6V-10">
          <mxGeometry relative="1" as="geometry" />
        </mxCell>
        <mxCell id="Fem_o0pjPRZjkHKnfd6V-6" value="check for proper input" style="strokeWidth=2;html=1;shape=mxgraph.flowchart.decision;whiteSpace=wrap;" vertex="1" parent="1">
          <mxGeometry x="-370" y="290" width="100" height="110" as="geometry" />
        </mxCell>
        <mxCell id="Fem_o0pjPRZjkHKnfd6V-7" value="send proper use error" style="strokeWidth=2;html=1;shape=mxgraph.flowchart.start_1;whiteSpace=wrap;" vertex="1" parent="1">
          <mxGeometry x="-370" y="500" width="100" height="60" as="geometry" />
        </mxCell>
        <mxCell id="Fem_o0pjPRZjkHKnfd6V-13" style="edgeStyle=orthogonalEdgeStyle;rounded=0;orthogonalLoop=1;jettySize=auto;html=1;exitX=0.5;exitY=1;exitDx=0;exitDy=0;exitPerimeter=0;entryX=0.397;entryY=0.047;entryDx=0;entryDy=0;entryPerimeter=0;" edge="1" parent="1" source="Fem_o0pjPRZjkHKnfd6V-10" target="Fem_o0pjPRZjkHKnfd6V-12">
          <mxGeometry relative="1" as="geometry" />
        </mxCell>
        <mxCell id="Fem_o0pjPRZjkHKnfd6V-31" style="edgeStyle=orthogonalEdgeStyle;rounded=0;orthogonalLoop=1;jettySize=auto;html=1;exitX=1;exitY=0.5;exitDx=0;exitDy=0;exitPerimeter=0;entryX=0;entryY=0.5;entryDx=0;entryDy=0;entryPerimeter=0;" edge="1" parent="1" source="Fem_o0pjPRZjkHKnfd6V-10" target="Fem_o0pjPRZjkHKnfd6V-28">
          <mxGeometry relative="1" as="geometry" />
        </mxCell>
        <mxCell id="Fem_o0pjPRZjkHKnfd6V-10" value="check if files can be used" style="strokeWidth=2;html=1;shape=mxgraph.flowchart.decision;whiteSpace=wrap;" vertex="1" parent="1">
          <mxGeometry x="-220" y="300" width="90" height="100" as="geometry" />
        </mxCell>
        <mxCell id="Fem_o0pjPRZjkHKnfd6V-12" value="send file error msg" style="strokeWidth=2;html=1;shape=mxgraph.flowchart.start_1;whiteSpace=wrap;" vertex="1" parent="1">
          <mxGeometry x="-220" y="500" width="100" height="60" as="geometry" />
        </mxCell>
        <mxCell id="Fem_o0pjPRZjkHKnfd6V-18" style="edgeStyle=orthogonalEdgeStyle;rounded=0;orthogonalLoop=1;jettySize=auto;html=1;exitX=1;exitY=0.5;exitDx=0;exitDy=0;" edge="1" parent="1" source="Fem_o0pjPRZjkHKnfd6V-14" target="Fem_o0pjPRZjkHKnfd6V-17">
          <mxGeometry relative="1" as="geometry" />
        </mxCell>
        <mxCell id="Fem_o0pjPRZjkHKnfd6V-14" value="count all of the letters and thier occurences" style="rounded=1;whiteSpace=wrap;html=1;absoluteArcSize=1;arcSize=14;strokeWidth=2;" vertex="1" parent="1">
          <mxGeometry x="20" y="180" width="100" height="100" as="geometry" />
        </mxCell>
        <mxCell id="Fem_o0pjPRZjkHKnfd6V-38" style="edgeStyle=orthogonalEdgeStyle;rounded=0;orthogonalLoop=1;jettySize=auto;html=1;exitX=1;exitY=0.5;exitDx=0;exitDy=0;" edge="1" parent="1" source="Fem_o0pjPRZjkHKnfd6V-16" target="Fem_o0pjPRZjkHKnfd6V-23">
          <mxGeometry relative="1" as="geometry" />
        </mxCell>
        <mxCell id="Fem_o0pjPRZjkHKnfd6V-16" value="open the key file" style="rounded=1;whiteSpace=wrap;html=1;absoluteArcSize=1;arcSize=14;strokeWidth=2;" vertex="1" parent="1">
          <mxGeometry x="40" y="400" width="100" height="100" as="geometry" />
        </mxCell>
        <mxCell id="Fem_o0pjPRZjkHKnfd6V-20" style="edgeStyle=orthogonalEdgeStyle;rounded=0;orthogonalLoop=1;jettySize=auto;html=1;exitX=1;exitY=0.5;exitDx=0;exitDy=0;" edge="1" parent="1" source="Fem_o0pjPRZjkHKnfd6V-17" target="Fem_o0pjPRZjkHKnfd6V-19">
          <mxGeometry relative="1" as="geometry" />
        </mxCell>
        <mxCell id="Fem_o0pjPRZjkHKnfd6V-17" value="make the binary tree" style="rounded=1;whiteSpace=wrap;html=1;absoluteArcSize=1;arcSize=14;strokeWidth=2;" vertex="1" parent="1">
          <mxGeometry x="160" y="180" width="100" height="100" as="geometry" />
        </mxCell>
        <mxCell id="Fem_o0pjPRZjkHKnfd6V-25" style="edgeStyle=orthogonalEdgeStyle;rounded=0;orthogonalLoop=1;jettySize=auto;html=1;exitX=1;exitY=0.5;exitDx=0;exitDy=0;entryX=0.024;entryY=0.436;entryDx=0;entryDy=0;entryPerimeter=0;" edge="1" parent="1" source="Fem_o0pjPRZjkHKnfd6V-19" target="Fem_o0pjPRZjkHKnfd6V-24">
          <mxGeometry relative="1" as="geometry" />
        </mxCell>
        <mxCell id="Fem_o0pjPRZjkHKnfd6V-19" value="write the key info into the given key file" style="rounded=1;whiteSpace=wrap;html=1;absoluteArcSize=1;arcSize=14;strokeWidth=2;" vertex="1" parent="1">
          <mxGeometry x="310" y="180" width="100" height="100" as="geometry" />
        </mxCell>
        <mxCell id="Fem_o0pjPRZjkHKnfd6V-21" value="stop" style="strokeWidth=2;html=1;shape=mxgraph.flowchart.start_1;whiteSpace=wrap;" vertex="1" parent="1">
          <mxGeometry x="530" y="340" width="100" height="60" as="geometry" />
        </mxCell>
        <mxCell id="Fem_o0pjPRZjkHKnfd6V-39" style="edgeStyle=orthogonalEdgeStyle;rounded=0;orthogonalLoop=1;jettySize=auto;html=1;exitX=1;exitY=0.5;exitDx=0;exitDy=0;entryX=0;entryY=0.5;entryDx=0;entryDy=0;entryPerimeter=0;" edge="1" parent="1" source="Fem_o0pjPRZjkHKnfd6V-23" target="Fem_o0pjPRZjkHKnfd6V-32">
          <mxGeometry relative="1" as="geometry" />
        </mxCell>
        <mxCell id="Fem_o0pjPRZjkHKnfd6V-23" value="read a compressed file bit and add them to a temporary varible of bit array" style="rounded=1;whiteSpace=wrap;html=1;absoluteArcSize=1;arcSize=14;strokeWidth=2;" vertex="1" parent="1">
          <mxGeometry x="180" y="400" width="100" height="100" as="geometry" />
        </mxCell>
        <mxCell id="Fem_o0pjPRZjkHKnfd6V-26" style="edgeStyle=orthogonalEdgeStyle;rounded=0;orthogonalLoop=1;jettySize=auto;html=1;exitX=1;exitY=1;exitDx=0;exitDy=0;entryX=0.5;entryY=0;entryDx=0;entryDy=0;entryPerimeter=0;" edge="1" parent="1" source="Fem_o0pjPRZjkHKnfd6V-24" target="Fem_o0pjPRZjkHKnfd6V-21">
          <mxGeometry relative="1" as="geometry" />
        </mxCell>
        <mxCell id="Fem_o0pjPRZjkHKnfd6V-24" value="write into the compressed file in bits" style="rounded=1;whiteSpace=wrap;html=1;absoluteArcSize=1;arcSize=14;strokeWidth=2;" vertex="1" parent="1">
          <mxGeometry x="470" y="180" width="100" height="100" as="geometry" />
        </mxCell>
        <mxCell id="Fem_o0pjPRZjkHKnfd6V-29" style="edgeStyle=orthogonalEdgeStyle;rounded=0;orthogonalLoop=1;jettySize=auto;html=1;exitX=0.5;exitY=0;exitDx=0;exitDy=0;exitPerimeter=0;entryX=0;entryY=0.5;entryDx=0;entryDy=0;" edge="1" parent="1" source="Fem_o0pjPRZjkHKnfd6V-28" target="Fem_o0pjPRZjkHKnfd6V-14">
          <mxGeometry relative="1" as="geometry" />
        </mxCell>
        <mxCell id="Fem_o0pjPRZjkHKnfd6V-30" style="edgeStyle=orthogonalEdgeStyle;rounded=0;orthogonalLoop=1;jettySize=auto;html=1;exitX=0.5;exitY=1;exitDx=0;exitDy=0;exitPerimeter=0;entryX=0;entryY=0.5;entryDx=0;entryDy=0;" edge="1" parent="1" source="Fem_o0pjPRZjkHKnfd6V-28" target="Fem_o0pjPRZjkHKnfd6V-16">
          <mxGeometry relative="1" as="geometry" />
        </mxCell>
        <mxCell id="Fem_o0pjPRZjkHKnfd6V-28" value="check if compress or decompress" style="strokeWidth=2;html=1;shape=mxgraph.flowchart.decision;whiteSpace=wrap;" vertex="1" parent="1">
          <mxGeometry x="-110" y="270" width="140" height="120" as="geometry" />
        </mxCell>
        <mxCell id="Fem_o0pjPRZjkHKnfd6V-35" style="edgeStyle=orthogonalEdgeStyle;rounded=0;orthogonalLoop=1;jettySize=auto;html=1;exitX=0.5;exitY=1;exitDx=0;exitDy=0;exitPerimeter=0;entryX=0.5;entryY=0;entryDx=0;entryDy=0;" edge="1" parent="1" source="Fem_o0pjPRZjkHKnfd6V-32" target="Fem_o0pjPRZjkHKnfd6V-34">
          <mxGeometry relative="1" as="geometry" />
        </mxCell>
        <mxCell id="Fem_o0pjPRZjkHKnfd6V-32" value="does temprary varible match a letter in the key file?" style="strokeWidth=2;html=1;shape=mxgraph.flowchart.decision;whiteSpace=wrap;" vertex="1" parent="1">
          <mxGeometry x="360" y="405" width="100" height="90" as="geometry" />
        </mxCell>
        <mxCell id="Fem_o0pjPRZjkHKnfd6V-42" style="edgeStyle=orthogonalEdgeStyle;rounded=0;orthogonalLoop=1;jettySize=auto;html=1;exitX=0.5;exitY=1;exitDx=0;exitDy=0;" edge="1" parent="1" source="Fem_o0pjPRZjkHKnfd6V-34" target="Fem_o0pjPRZjkHKnfd6V-36">
          <mxGeometry relative="1" as="geometry" />
        </mxCell>
        <mxCell id="Fem_o0pjPRZjkHKnfd6V-34" value="write the letter into the new decompressed file&amp;nbsp;" style="rounded=1;whiteSpace=wrap;html=1;absoluteArcSize=1;arcSize=14;strokeWidth=2;" vertex="1" parent="1">
          <mxGeometry x="360" y="530" width="100" height="100" as="geometry" />
        </mxCell>
        <mxCell id="Fem_o0pjPRZjkHKnfd6V-40" style="edgeStyle=orthogonalEdgeStyle;rounded=0;orthogonalLoop=1;jettySize=auto;html=1;exitX=0;exitY=0.5;exitDx=0;exitDy=0;exitPerimeter=0;entryX=0.5;entryY=1;entryDx=0;entryDy=0;" edge="1" parent="1" source="Fem_o0pjPRZjkHKnfd6V-36" target="Fem_o0pjPRZjkHKnfd6V-23">
          <mxGeometry relative="1" as="geometry" />
        </mxCell>
        <mxCell id="Fem_o0pjPRZjkHKnfd6V-41" style="edgeStyle=orthogonalEdgeStyle;rounded=0;orthogonalLoop=1;jettySize=auto;html=1;exitX=1;exitY=0.5;exitDx=0;exitDy=0;exitPerimeter=0;entryX=0.5;entryY=1;entryDx=0;entryDy=0;entryPerimeter=0;" edge="1" parent="1" source="Fem_o0pjPRZjkHKnfd6V-36" target="Fem_o0pjPRZjkHKnfd6V-21">
          <mxGeometry relative="1" as="geometry" />
        </mxCell>
        <mxCell id="Fem_o0pjPRZjkHKnfd6V-36" value="did the file finish?" style="strokeWidth=2;html=1;shape=mxgraph.flowchart.decision;whiteSpace=wrap;" vertex="1" parent="1">
          <mxGeometry x="360" y="640" width="100" height="100" as="geometry" />
        </mxCell>
      </root>
    </mxGraphModel>
  </diagram>
</mxfile>
